<svg width="24" height="24" viewBox="0 0 24 24" fill="none" xmlns="http://www.w3.org/2000/svg">
<path d="M11 3C10.448 3 10 3.448 10 4V4.20117C5.76131 5.06623 2.48566 8.6232 2.04883 13H2C1.448 13 1 13.448 1 14V16C1 16.552 1.448 17 2 17H4C4.552 17 5 16.552 5 16V14C5 13.4716 4.58569 13.0497 4.06641 13.0137C4.47098 9.70454 6.88012 7.03864 10.0508 6.24805C10.1636 6.67664 10.5361 7 11 7H13C13.4639 7 13.8364 6.67664 13.9492 6.24805C17.1199 7.03864 19.529 9.70454 19.9336 13.0137C19.4143 13.0497 19 13.4716 19 14V16C19 16.552 19.448 17 20 17H22C22.552 17 23 16.552 23 16V14C23 13.448 22.552 13 22 13H21.9512C21.5143 8.6232 18.2387 5.06623 14 4.20117V4C14 3.448 13.552 3 13 3H11Z" fill="#1A1A1A"/>
<path fill-rule="evenodd" clip-rule="evenodd" d="M12.8321 9.4453C12.6466 9.1671 12.3344 9 12 9C11.6656 9 11.3534 9.1671 11.168 9.4453L7.16795 15.4453C6.96889 15.7439 6.94509 16.1262 7.10558 16.4472L9.10558 20.4472C9.27497 20.786 9.62123 21 10 21H14C14.3788 21 14.725 20.786 14.8944 20.4472L16.8944 16.4472C17.0549 16.1262 17.0311 15.7439 16.8321 15.4453L12.8321 9.4453ZM10.618 19L9.15396 16.0718L11 13.3028V16C11 16.5523 11.4477 17 12 17C12.5523 17 13 16.5523 13 16V13.3028L14.846 16.0718L13.382 19H10.618Z" fill="#1A1A1A"/>
</svg>
