<svg width="25" height="24" viewBox="0 0 25 24" fill="none" xmlns="http://www.w3.org/2000/svg">
<path d="M5.00293 3C3.90987 3 3.00293 3.90694 3.00293 5V19C3.00293 20.0931 3.90987 21 5.00293 21H7.00293H17.0029H19.0029C20.096 21 21.0029 20.0931 21.0029 19V5C21.0029 3.90694 20.096 3 19.0029 3H5.00293ZM5.00293 5H19.0029V19H17.0029V18.3848C17.0029 17.2782 16.2723 16.3779 15.3564 15.832C14.4406 15.2862 13.28 15 12.0029 15C10.7258 15 9.5653 15.2862 8.64941 15.832C7.73353 16.3779 7.00293 17.2782 7.00293 18.3848V19H5.00293V5ZM12.0029 7C11.0863 7 10.2715 7.37976 9.75488 7.96094C9.23828 8.54212 9.00293 9.27778 9.00293 10C9.00293 10.7222 9.23828 11.4579 9.75488 12.0391C10.2715 12.6202 11.0863 13 12.0029 13C12.9196 13 13.7344 12.6202 14.251 12.0391C14.7676 11.4579 15.0029 10.7222 15.0029 10C15.0029 9.27778 14.7676 8.54212 14.251 7.96094C13.7344 7.37976 12.9196 7 12.0029 7ZM12.0029 9C12.4196 9 12.6048 9.12024 12.7549 9.28906C12.9049 9.45788 13.0029 9.72222 13.0029 10C13.0029 10.2778 12.9049 10.5421 12.7549 10.7109C12.6048 10.8798 12.4196 11 12.0029 11C11.5863 11 11.401 10.8798 11.251 10.7109C11.1009 10.5421 11.0029 10.2778 11.0029 10C11.0029 9.72222 11.1009 9.45788 11.251 9.28906C11.401 9.12024 11.5863 9 12.0029 9ZM12.0029 17C12.9688 17 13.8096 17.2369 14.333 17.5488C14.8564 17.8607 15.0029 18.1543 15.0029 18.3848V19H9.00293V18.3848C9.00293 18.1543 9.14949 17.8607 9.67285 17.5488C10.1962 17.2369 11.037 17 12.0029 17Z" fill="#1A1A1A"/>
</svg>
