<svg width="25" height="24" viewBox="0 0 25 24" fill="none" xmlns="http://www.w3.org/2000/svg">
<path d="M6.44238 1.91992C5.86238 1.92992 5.2823 2.13078 4.8623 2.55078L3.7334 3.66992C3.3234 4.08992 3.09254 4.65047 3.10254 5.23047C3.11254 5.82047 3.35223 6.36953 3.78223 6.76953L8.64355 11.3594L8.63379 11.3691L10.0928 12.7402L11.292 13.8809L12.7432 15.2598L12.7529 15.25L15.3623 17.7305L15.3779 17.7461C15.476 18.3469 15.7196 18.9103 16.083 19.3262C16.657 19.9842 17.5743 20.1886 19.2393 20.5566C19.8323 20.6866 20.3252 20.7741 20.6592 20.8301L22.0322 21.0605L21.8115 19.6855C21.7645 19.3965 21.6891 18.9663 21.5811 18.4473C21.2091 16.6663 21.0052 15.6868 20.3232 15.0898C19.9544 14.7679 19.4682 14.5393 18.9443 14.4219L18.9424 14.4199L18.9326 14.4102L17.2822 12.6309L16.3623 11.6406L15.0029 10.1699L12.5225 7.48047L12.5127 7.49023L7.9834 2.61914C7.5834 2.17914 7.02238 1.92992 6.44238 1.91992ZM18.4131 2C18.1631 2 17.9039 2.09906 17.7139 2.28906L13.9326 6.07031L17.7822 10.2207L21.7139 6.28906C22.1039 5.89906 22.1039 5.27086 21.7139 4.88086L19.1221 2.28906C18.9321 2.09906 18.6731 2 18.4131 2ZM6.39355 3.91992C6.41355 3.91992 6.4627 3.9207 6.5127 3.9707L11.1025 8.90039L12.4639 10.3691L12.6318 10.5488L11.71 11.5059L11.5127 11.3203L10.0537 9.94922L5.15332 5.31055C5.11332 5.28055 5.10254 5.22922 5.10254 5.19922C5.10254 5.16922 5.11332 5.12984 5.15332 5.08984L6.28223 3.96094C6.31223 3.92094 6.36355 3.91992 6.39355 3.91992ZM18.4131 4.41016L19.5928 5.58984L18.542 6.64062L17.3623 5.46094L18.4131 4.41016ZM13.9971 12.0137L14.0029 12.0195L14.9521 13.0508L16.4932 14.7109L15.8037 15.3906L14.1631 13.8398L13.1631 12.8906L13.1572 12.8848L13.9971 12.0137ZM7.22363 12.7793L5.00293 15C5.00293 15 6.01293 15.01 6.50293 15.5C6.97293 15.97 6.9834 16.9005 6.9834 16.9805C6.9834 16.9805 8.00293 17 8.50293 17.5C9.00293 18 9.00293 19 9.00293 19L11.333 16.6699L7.22363 12.7793ZM18.1807 16.3262C18.4977 16.3262 18.8268 16.4368 19.0068 16.5938C19.1738 16.7627 19.3774 17.6841 19.5654 18.5801C18.6994 18.3881 17.7578 18.1757 17.5908 18.0117C17.3128 17.6937 17.1809 16.9118 17.5439 16.5488C17.7019 16.3908 17.9377 16.3262 18.1807 16.3262ZM3.67285 17L3.00293 21L7.00293 20.3301L3.67285 17Z" fill="#1A1A1A"/>
</svg>
