<svg width="25" height="24" viewBox="0 0 25 24" fill="none" xmlns="http://www.w3.org/2000/svg">
<path d="M9.00293 3C7.89793 3 7.00293 3.895 7.00293 5V7V9V15.1836C6.68885 15.072 6.3553 15 6.00293 15C4.34593 15 3.00293 16.343 3.00293 18C3.00293 19.657 4.34593 21 6.00293 21C7.65993 21 9.00293 19.657 9.00293 18V9H18.0029V15.1836C17.6889 15.072 17.3553 15 17.0029 15C15.3459 15 14.0029 16.343 14.0029 18C14.0029 19.657 15.3459 21 17.0029 21C18.6599 21 20.0029 19.657 20.0029 18V9V7V5C20.0029 3.89543 19.1075 3 18.0029 3H9.00293ZM9.00293 5H18.0029V9H9.00293V5ZM6.00293 17C6.55393 17 7.00293 17.449 7.00293 18C7.00293 18.551 6.55393 19 6.00293 19C5.45193 19 5.00293 18.551 5.00293 18C5.00293 17.449 5.45193 17 6.00293 17ZM17.0029 17C17.5539 17 18.0029 17.449 18.0029 18C18.0029 18.551 17.5539 19 17.0029 19C16.4519 19 16.0029 18.551 16.0029 18C16.0029 17.449 16.4519 17 17.0029 17Z" fill="#1A1A1A"/>
<path d="M8.00293 10.5V10C8.00293 8.89543 8.89836 8 10.0029 8H17.0029C18.1075 8 19.0029 8.89543 19.0029 10V10.5" stroke="#1A1A1A" stroke-width="2" stroke-linecap="round" stroke-linejoin="round"/>
</svg>
